/* XPM */
static char *zoom_minus3_xpm[] = {
/* columns rows colors chars-per-pixel */
"16 15 256 2 ",
"   c black",
".  c #800000",
"X  c #008000",
"o  c #808000",
"O  c navy",
"+  c #800080",
"@  c #008080",
"#  c #C0C0C0",
"$  c #C0DCC0",
"%  c #A6CAF0",
"&  c black",
"*  c #3A749C",
"=  c #4B82A8",
"-  c #5A89A6",
";  c #538BB1",
":  c #5F8FB0",
">  c #6792AE",
",  c #6B97B6",
"<  c #749BB5",
"1  c #619BC4",
"2  c #69A1CF",
"3  c #7FA6C0",
"4  c #71A8D1",
"5  c #C00000",
"6  c magenta",
"7  c #84A5BB",
"8  c #8EA9BC",
"9  c #85BBE2",
"0  c #97C4E7",
"q  c #A5CCEA",
"w  c #B6D5EE",
"e  c #C3DDF1",
"r  c #D1E5F5",
"t  c #E2EFF8",
"y  c #EFF6FC",
"u  c #F4F9FD",
"i  c #F7FBFD",
"p  c #FAFCFE",
"a  c #FDFDFE",
"s  c gray100",
"d  c black",
"f  c black",
"g  c black",
"h  c black",
"j  c black",
"k  c black",
"l  c black",
"z  c black",
"x  c black",
"c  c black",
"v  c black",
"b  c black",
"n  c black",
"m  c black",
"M  c black",
"N  c black",
"B  c black",
"V  c black",
"C  c black",
"Z  c black",
"A  c black",
"S  c black",
"D  c black",
"F  c black",
"G  c black",
"H  c black",
"J  c black",
"K  c black",
"L  c black",
"P  c black",
"I  c black",
"U  c black",
"Y  c black",
"T  c black",
"R  c black",
"E  c black",
"W  c black",
"Q  c black",
"!  c black",
"~  c black",
"^  c black",
"/  c black",
"(  c black",
")  c black",
"_  c black",
"`  c black",
"'  c black",
"]  c black",
"[  c black",
"{  c black",
"}  c black",
"|  c black",
" . c black",
".. c black",
"X. c black",
"o. c black",
"O. c black",
"+. c black",
"@. c black",
"#. c black",
"$. c black",
"%. c black",
"&. c black",
"*. c black",
"=. c black",
"-. c black",
";. c black",
":. c black",
">. c black",
",. c black",
"<. c black",
"1. c black",
"2. c black",
"3. c black",
"4. c black",
"5. c black",
"6. c black",
"7. c black",
"8. c black",
"9. c black",
"0. c black",
"q. c black",
"w. c black",
"e. c black",
"r. c black",
"t. c black",
"y. c black",
"u. c black",
"i. c black",
"p. c black",
"a. c black",
"s. c black",
"d. c black",
"f. c black",
"g. c black",
"h. c black",
"j. c black",
"k. c black",
"l. c black",
"z. c black",
"x. c black",
"c. c black",
"v. c black",
"b. c black",
"n. c black",
"m. c black",
"M. c black",
"N. c black",
"B. c black",
"V. c black",
"C. c black",
"Z. c black",
"A. c black",
"S. c black",
"D. c black",
"F. c black",
"G. c black",
"H. c black",
"J. c black",
"K. c black",
"L. c black",
"P. c black",
"I. c black",
"U. c black",
"Y. c black",
"T. c black",
"R. c black",
"E. c black",
"W. c black",
"Q. c black",
"!. c black",
"~. c black",
"^. c black",
"/. c black",
"(. c black",
"). c black",
"_. c black",
"`. c black",
"'. c black",
"]. c black",
"[. c black",
"{. c black",
"}. c black",
"|. c black",
" X c black",
".X c black",
"XX c black",
"oX c black",
"OX c black",
"+X c black",
"@X c black",
"#X c black",
"$X c black",
"%X c black",
"&X c black",
"*X c black",
"=X c black",
"-X c black",
";X c black",
":X c black",
">X c black",
",X c black",
"<X c black",
"1X c black",
"2X c black",
"3X c black",
"4X c black",
"5X c black",
"6X c black",
"7X c black",
"8X c black",
"9X c black",
"0X c black",
"qX c black",
"wX c black",
"eX c black",
"rX c black",
"tX c black",
"yX c black",
"uX c black",
"iX c black",
"pX c black",
"aX c black",
"sX c black",
"dX c black",
"fX c black",
"gX c black",
"hX c black",
"jX c black",
"kX c black",
"lX c black",
"zX c black",
"xX c black",
"cX c black",
"vX c black",
"bX c black",
"nX c black",
"mX c black",
"MX c black",
"NX c black",
"BX c black",
"VX c black",
"CX c black",
"ZX c black",
"AX c black",
"SX c black",
"DX c #FFFBF0",
"FX c #A0A0A4",
"GX c #808080",
"HX c red",
"JX c green",
"KX c yellow",
"LX c blue",
"PX c magenta",
"IX c cyan",
"UX c gray100",
/* pixels */
"IXIXIXIXIXIXIXIXIXIXIXIXIXIXIXIX",
"IXIXIXIXIX          IXIXIXIXIXIX",
"IXIXIXIX    s s s     IXIXIXIXIX",
"IXIXIX    s s s s s     IXIXIXIX",
"IXIX    s s s s s s s     IXIXIX",
"IXIX  s s u s s s s s s   IXIXIX",
"IXIX  s s           s s   IXIXIX",
"IXIX  s s s s s s s s s   IXIXIX",
"IXIX    s s s s s s s     IXIXIX",
"IXIXIX    s s s s s     IXIXIXIX",
"IXIXIXIX    s s s         IXIXIX",
"IXIXIXIXIX          IX      IXIX",
"IXIXIXIXIXIXIXIXIXIXIXIX      IX",
"IXIXIXIXIXIXIXIXIXIXIXIXIX      ",
"IXIXIXIXIXIXIXIXIXIXIXIXIXIX    "
};
